<?xml version="1.0" encoding="UTF-8" standalone="no"?>
<svg
   xmlns:dc="http://purl.org/dc/elements/1.1/"
   xmlns:cc="http://creativecommons.org/ns#"
   xmlns:rdf="http://www.w3.org/1999/02/22-rdf-syntax-ns#"
   xmlns:svg="http://www.w3.org/2000/svg"
   xmlns="http://www.w3.org/2000/svg"
   xmlns:sodipodi="http://sodipodi.sourceforge.net/DTD/sodipodi-0.dtd"
   xmlns:inkscape="http://www.inkscape.org/namespaces/inkscape"
   inkscape:version="1.0 (4035a4fb49, 2020-05-01)"
   sodipodi:docname="logo Ferrus Logic.svg"
   id="svg13"
   version="1.1"
   viewBox="0 0 1385 276"
   height="276"
   width="1385"
   inkscape:export-filename="C:\Users\toroc\OneDrive\Escritorio\logo Ferrus Logic.png"
   inkscape:export-xdpi="96"
   inkscape:export-ydpi="96">
  <metadata
     id="metadata17">
    <rdf:RDF>
      <cc:Work
         rdf:about="">
        <dc:format>image/svg+xml</dc:format>
        <dc:type
           rdf:resource="http://purl.org/dc/dcmitype/StillImage" />
      </cc:Work>
    </rdf:RDF>
  </metadata>
  <sodipodi:namedview
     inkscape:current-layer="svg13"
     inkscape:window-maximized="1"
     inkscape:window-y="-8"
     inkscape:window-x="-8"
     inkscape:cy="261.96059"
     inkscape:cx="838.50813"
     inkscape:zoom="0.7071068"
     showgrid="false"
     id="namedview15"
     inkscape:window-height="715"
     inkscape:window-width="1366"
     inkscape:pageshadow="2"
     inkscape:pageopacity="0"
     guidetolerance="10"
     gridtolerance="10"
     objecttolerance="10"
     borderopacity="1"
     bordercolor="#666666"
     pagecolor="#ffffff"
     inkscape:document-rotation="0" />
  <defs
     id="defs4">
    <style
       id="style2">
      .cls-1, .cls-5 {
        fill: #4c1701;
      }

      .cls-1, .cls-2, .cls-4 {
        fill-rule: evenodd;
      }

      .cls-2, .cls-3 {
        fill: #fc4c02;
      }

      .cls-3 {
        stroke: #fc4c02;
        stroke-linejoin: round;
        stroke-width: 8px;
      }

      .cls-4 {
        fill: #fff;
      }
    </style>
  </defs>
  <path
     d="M724.528,252.159a11.283,11.283,0,0,0-3.856-3.871,38.129,38.129,0,0,0-7.9-3.519,40.424,40.424,0,0,1-7.067-3.057,8.31,8.31,0,0,1-2.965-2.873,8.2,8.2,0,0,1-.907-4.086,7.527,7.527,0,0,1,2.95-6.268,12.538,12.538,0,0,1,7.927-2.3,27.738,27.738,0,0,1,10.693,2.335l1.136-2.7a29.715,29.715,0,0,0-11.89-2.4A15.68,15.68,0,0,0,702.5,226.6a10.961,10.961,0,0,0-1.321,15.547q2.626,2.751,9.509,5.116a43.227,43.227,0,0,1,7.128,2.981,9.81,9.81,0,0,1,3.5,3.057,7.677,7.677,0,0,1,1.076,4.225,8.041,8.041,0,0,1-3.242,6.652q-3.241,2.534-8.772,2.534A31.956,31.956,0,0,1,698,264.649v3.134q4.394,1.812,12.628,1.813,6.851,0,10.984-3.288a10.784,10.784,0,0,0,4.133-8.91A10.569,10.569,0,0,0,724.528,252.159ZM770.2,229.545q-5.316-6.19-14.718-6.191-9.341,0-14.732,6.16T735.356,246.4q0,10.754,5.346,16.976T755.42,269.6q9.4,0,14.748-6.222t5.346-16.915Q775.514,235.737,770.2,229.545Zm-27.085,2.074q4.349-5.223,12.367-5.223,8.05,0,12.337,5.177t4.286,14.886q0,9.741-4.286,14.964t-12.4,5.223q-8.05,0-12.352-5.269t-4.3-14.918Q738.767,236.843,743.114,231.619Zm48.375,17.3h20.279V246H791.489V226.949h21.477v-2.888H788.355v44.92h3.134V248.917Zm42.675-21.907h14.6v-2.949H816.405v2.949H831v41.971h3.164V227.01Zm71.988-2.949h-3.165q-8.848,32.814-9.479,35.3t-1.029,4.7q-0.677-3.318-2.243-8.726l-9-31.278h-3.472l-7.681,27.253q-2.4,8.511-3.134,12.69-0.216-1.229-.476-2.443t-0.584-2.52q-0.322-1.305-.722-2.8T864.3,253l-7.866-28.943H853.15l12.352,44.92h2.642q9-32.046,9.909-35.519t1.4-6.145q0.615,2.736,1.844,7.006l9.863,34.658h2.581Zm38.312,44.92H948l-17.7-45.1h-2l-18.066,45.1h3.472l6.268-15.854h18.251Zm-17.053-34.812a49.408,49.408,0,0,0,1.813-5.346q1.076,3.379,1.843,5.285l6.115,16.192h-16.07Zm43.751,15.24,11.583,19.572h3.749l-12.2-20.463a13.239,13.239,0,0,0,7.236-4.455,12.149,12.149,0,0,0,2.381-7.62q0-6.207-3.994-9.3t-12.352-3.087H956.874v44.92h3.134V249.409h11.154Zm-11.154-22.522h7.436q6.944,0,10.016,2.335t3.073,7.467q0,4.947-3.134,7.481t-8.818,2.535h-8.573V226.887Zm61.322,39.206H999.918V246.828h20.222V243.94H999.918V226.949h21.412v-2.888H996.784v44.92h24.546v-2.888Z"
     class="cls-1"
     id="Software" />
  <path
     d="M1031.75,177.434v-25H973.835V34.66H943.561V177.434h88.189Zm39.46-79.15q5.28-8.057,17.19-8.057,12.015,0,17.28,8.106t5.28,24.317q0,16.309-5.23,24.56t-17.14,8.252q-12.015,0-17.33-8.3t-5.32-24.511Q1065.94,106.341,1071.21,98.284Zm63.77-5.615a45.645,45.645,0,0,0-18.46-19.629q-12.015-6.834-27.73-6.836-25.29,0-39.26,14.844t-13.96,41.6q0,17.189,6.44,30.078a45.823,45.823,0,0,0,18.46,19.775q12.015,6.885,27.73,6.885,25.1,0,39.16-15.039t14.06-41.7Q1141.42,105.462,1134.98,92.668Zm75.99-24.414q-1.755-.389-8.06-1.221a85.189,85.189,0,0,0-10.89-.83q-21.585,0-33.2,9.766t-11.62,27.637a36.194,36.194,0,0,0,5.03,19.336,29.284,29.284,0,0,0,13.62,11.914,41.789,41.789,0,0,0-10.45,8.154,15.721,15.721,0,0,0-.19,19.824,19.849,19.849,0,0,0,8,6.4q-11.91,2.834-18.06,9.472a23.372,23.372,0,0,0-6.16,16.5q0,14.356,12.07,22.315t34.91,7.959q29.88,0,45.85-10.547t15.96-29.688q0-14.942-9.42-22.656t-27.39-7.715h-18.56q-16.4,0-16.4-6.445,0-4.3,4.59-7.813l4.39,0.489,5.37,0.293q21.78,0,34.04-9.815,12.24-9.815,12.25-27.392a29.753,29.753,0,0,0-4.69-16.407l17.09-4.394V68.254h-38.08Zm-40.68,114.4q5.52-3.858,13.72-3.857h15.43q11.235,0,16.61,2.344t5.37,8.5q0,7.617-9.09,12.012-9.075,4.393-25.09,4.394-10.65,0-16.56-3.515t-5.9-9.668A11.886,11.886,0,0,1,1170.29,182.658Zm21.73-98.388q16.215,0,16.21,19.726,0,8.888-3.9,14.063t-12.31,5.176q-8.3,0-12.35-5.176T1175.62,104q0-19.725,16.4-19.726h0Zm77.94-29.59q8.115,0,12.16-3.858t4.05-10.791q0-14.55-16.21-14.551t-16.21,14.551q0,14.648,16.21,14.648h0Zm14.85,13.574h-29.79v109.18h29.79V68.254ZM1367,177.629a48.086,48.086,0,0,0,14.6-6.347V145.793a57.586,57.586,0,0,1-14.65,7.178,52.987,52.987,0,0,1-15.92,2.295q-23.25,0-23.24-32.031,0-33.007,23.24-33.008a42.186,42.186,0,0,1,12.11,1.807q6.06,1.808,13.09,4.639l8.78-23.047q-15.03-7.42-33.98-7.422-25.875,0-39.75,14.7-13.86,14.7-13.86,42.529,0,55.958,50.97,55.957A82.165,82.165,0,0,0,1367,177.629Z"
     class="cls-2"
     id="Logic" />
  <path
     sodipodi:nodetypes="ccccccccccccccccsccsscscscccccccccccccccsscccccccccccccsscccccccccsssscccssccccccccccscccccccscscscccccccscc"
     d="m 378.548,124.28 h 42.773 V 93.323 H 378.548 V 66.077 h 46.386 V 35.12 h -84.375 v 142.774 h 37.989 z M 510.4,178.089 c 6.46156,-1.19949 12.7128,-3.33815 18.555,-6.348 V 144.3 c -5.85642,2.80714 -11.99454,4.98403 -18.311,6.494 -6.07761,1.3144 -12.2821,1.95162 -18.5,1.9 -7.358,0 -13.16867,-1.75767 -17.432,-5.273 -4.26333,-3.51533 -6.52567,-8.36567 -6.787,-14.551 h 68.262 v -16.988 c 0,-16.340667 -4.54133,-28.857 -13.624,-37.549 -9.08267,-8.692 -21.96033,-13.036333 -38.633,-13.033 -17.514,0 -30.99033,4.996667 -40.429,14.99 -9.43867,9.993333 -14.15867,24.33 -14.16,43.01 0,18.1 5.09433,32.04833 15.283,41.845 10.18867,9.79667 24.49533,14.69667 42.92,14.7 7.65578,0.0973 15.30493,-0.49036 22.856,-1.756 z M 496.968,96.058 c 2.896,3.190667 4.40967,7.455 4.541,12.793 H 468.7 c 0.52,-6.05467 2.294,-10.498 5.322,-13.33 3.05555,-2.843494 7.10782,-4.369563 11.28,-4.248 4.87933,0 8.768,1.595 11.666,4.785 z m 98.351,-25.342 c -5.59636,3.505067 -10.18896,8.400505 -13.33,14.209 h -1.856 l -5.957,-17.676 h -28.418 v 110.645 h 38.184 V 123.5 c 0,-7.16133 1.888,-12.64633 5.664,-16.455 3.776,-3.80867 9.83067,-5.713 18.164,-5.713 4.36015,-0.11478 8.71883,0.27854 12.988,1.172 l 3.418,-36.035 -2.148,-0.391 c -3.12939,-0.531778 -6.29877,-0.793077 -9.473,-0.781 -6.14751,0.107542 -12.13296,1.989368 -17.236,5.419 z m 81.848,0 c -5.59636,3.505067 -10.18896,8.400505 -13.33,14.209 h -1.856 l -5.957,-17.676 h -28.418 l -9e-4,206.72955 h 38.18262 L 665.79,123.5 c 1.1e-4,-7.16133 1.888,-12.64633 5.664,-16.455 3.776,-3.80867 9.83067,-5.713 18.164,-5.713 4.36015,-0.11478 8.71883,0.27854 12.988,1.172 l 3.418,-36.035 -2.148,-0.391 c -3.13048,-0.530861 -6.30086,-0.791156 -9.476,-0.778 -6.14618,0.107229 -12.13048,1.98798 -17.233,5.416 z m 139.9,107.178 V 67.249 h -38.18 v 48.438 c 0,12.304 -1.4,21.044 -4.2,26.22 -2.8,5.176 -7.48733,7.764 -14.062,7.764 -4.688,0 -8.05733,-1.85567 -10.108,-5.567 -2.05067,-3.71133 -3.07567,-9.17933 -3.075,-16.404 V 67.249 h -38.184 v 72.07 c 0,12.89133 3.38567,22.86867 10.157,29.932 6.77133,7.06333 16.244,10.59667 28.418,10.6 6.90764,0.15976 13.76379,-1.22493 20.068,-4.053 5.48184,-2.51374 10.11354,-6.56865 13.33,-11.67 h 2.246 l 4.785,13.77 h 28.809 z M 914.2,128.821 c -1.86903,-4.23362 -4.75441,-7.9403 -8.4,-10.791 -3.808,-3.05867 -9.586,-6.18367 -17.334,-9.375 -10.41733,-4.10067 -16.71733,-6.81867 -18.9,-8.154 -2.18267,-1.335333 -3.27133,-2.946667 -3.266,-4.834 0,-3.059333 3.125,-4.589333 9.375,-4.59 4.70732,0.184949 9.36976,0.989201 13.867,2.392 5.50669,1.538829 10.89259,3.481081 16.114,5.811 l 10.351,-24.609 c -6.44272,-2.899233 -13.12433,-5.235287 -19.97,-6.982 -6.72909,-1.630776 -13.63226,-2.433056 -20.556,-2.389 -14.51933,0 -25.74967,2.864667 -33.691,8.594 -7.94133,5.729333 -11.91267,13.735667 -11.914,24.019 0,8.13867 2.018,14.86067 6.054,20.166 4.036,5.30533 11.13233,10.04167 21.289,14.209 11.13333,4.428 17.85533,7.40667 20.166,8.936 2.31067,1.52933 3.46633,3.27067 3.467,5.224 0,3.77667 -4.13333,5.66467 -12.4,5.664 -6.37728,-0.10871 -12.72013,-0.9608 -18.9,-2.539 -6.67356,-1.56179 -13.19366,-3.71876 -19.482,-6.445 v 30.566 c 5.9971,2.26155 12.21675,3.88191 18.555,4.834 7.08842,0.94568 14.23509,1.38645 21.386,1.319 15.10333,0 26.692,-3.02733 34.766,-9.082 8.074,-6.05467 12.11033,-15.00667 12.109,-26.856 0.14083,-5.15972 -0.77317,-10.29388 -2.686,-15.088 z"
     class="cls-1"
     id="Ferrus" />
  <rect
     ry="20"
     rx="20"
     height="248.938"
     width="293"
     y="10.531"
     x="10"
     class="cls-3"
     data-name="Rounded Rectangle 1"
     id="Rounded_Rectangle_1" />
  <path
     d="M250.231,207.5H162.417V2h35.544V175.161h52.27V207.5ZM98.647,268H63.1V68.761h87.814V101.1H98.647v22.949h52.27v32.337H98.647V268Z"
     class="cls-4"
     data-name="Rectangle 2 copy 2"
     id="Rectangle_2_copy_2" />
</svg>
